HIERARCHY
ROOT Hips
{
  OFFSET 5.84602e-005 68.8428 3.50346
  CHANNELS 6 Xposition Yposition Zposition Zrotation Xrotation Yrotation
  JOINT Spine
  {
    OFFSET 0 8.597 -4.6522
    CHANNELS 3 Zrotation Xrotation Yrotation
    JOINT Spine1
    {
      OFFSET 0 7.8454 0.4098
      CHANNELS 3 Zrotation Xrotation Yrotation
      JOINT Spine2
      {
        OFFSET 0 9.7078 -2.1609
        CHANNELS 3 Zrotation Xrotation Yrotation
        JOINT Neck
        {
          OFFSET 0 21.8761 -0.4549
          CHANNELS 3 Zrotation Xrotation Yrotation
          JOINT Head
          {
            OFFSET 0 12.3537 3.3602
            CHANNELS 3 Zrotation Xrotation Yrotation
            End Site
            {
              OFFSET 0.0001 18.9506 0.5657
            }
          }
        }
        JOINT LeftShoulder
        {
          OFFSET 2.2086 21.1115 7.2329
          CHANNELS 3 Zrotation Xrotation Yrotation
          JOINT LeftArm
          {
            OFFSET 13.1193 3.0282 -4.8998
            CHANNELS 3 Zrotation Xrotation Yrotation
            JOINT LeftForeArm
            {
              OFFSET 27.4081 -0.0973053 -0.2375
              CHANNELS 3 Zrotation Xrotation Yrotation
              JOINT LeftHand
              {
                OFFSET 22.8641 0.0662994 -0.1369
                CHANNELS 3 Zrotation Xrotation Yrotation
                JOINT LeftHandIndex1
                {
                  OFFSET 8.8614 0.775009 2.4612
                  CHANNELS 3 Zrotation Xrotation Yrotation
                  JOINT LeftHandIndex2
                  {
                    OFFSET 3.3146 -0.808304 0.5841
                    CHANNELS 3 Zrotation Xrotation Yrotation
                    JOINT LeftHandIndex3
                    {
                      OFFSET 2.2628 -0.552002 0.3989
                      CHANNELS 3 Zrotation Xrotation Yrotation
                      End Site
                      {
                        OFFSET 1.6102 -0.4807 0.2612
                      }
                    }
                  }
                }
                JOINT LeftHandMiddle1
                {
                  OFFSET 8.9937 0.895004 0.2143
                  CHANNELS 3 Zrotation Xrotation Yrotation
                  JOINT LeftHandMiddle2
                  {
                    OFFSET 4.0984 0.0113983 -0.0242
                    CHANNELS 3 Zrotation Xrotation Yrotation
                    JOINT LeftHandMiddle3
                    {
                      OFFSET 2.2716 0.00689697 -0.0138001
                      CHANNELS 3 Zrotation Xrotation Yrotation
                      End Site
                      {
                        OFFSET 2.0404 -0.1441 0.0027
                      }
                    }
                  }
                }
                JOINT LeftHandRing1
                {
                  OFFSET 8.5234 0.597198 -2.0164
                  CHANNELS 3 Zrotation Xrotation Yrotation
                  JOINT LeftHandRing2
                  {
                    OFFSET 3.7188 -0.188293 -0.2328
                    CHANNELS 3 Zrotation Xrotation Yrotation
                    JOINT LeftHandRing3
                    {
                      OFFSET 2.1191 -0.106598 -0.1332
                      CHANNELS 3 Zrotation Xrotation Yrotation
                      End Site
                      {
                        OFFSET 1.8737 -0.2304 -0.0886
                      }
                    }
                  }
                }
                JOINT LeftHandPinky1
                {
                  OFFSET 7.9094 -0.601089 -3.4825
                  CHANNELS 3 Zrotation Xrotation Yrotation
                  JOINT LeftHandPinky2
                  {
                    OFFSET 2.2874 -0.477005 -0.6314
                    CHANNELS 3 Zrotation Xrotation Yrotation
                    JOINT LeftHandPinky3
                    {
                      OFFSET 1.6774 -0.349396 -0.4633
                      CHANNELS 3 Zrotation Xrotation Yrotation
                      End Site
                      {
                        OFFSET 1.4888 -0.4091 -0.3416
                      }
                    }
                  }
                }
                JOINT LeftHandThumb1
                {
                  OFFSET 1.833 -1.3875 1.3896
                  CHANNELS 3 Zrotation Xrotation Yrotation
                  JOINT LeftHandThumb2
                  {
                    OFFSET 3.4129 -1.121 2.5732
                    CHANNELS 3 Zrotation Xrotation Yrotation
                    JOINT LeftHandThumb3
                    {
                      OFFSET 2.2474 -0.804199 1.6192
                      CHANNELS 3 Zrotation Xrotation Yrotation
                      End Site
                      {
                        OFFSET 1.6527 -0.5689 1.1317
                      }
                    }
                  }
                }
              }
            }
          }
        }
        JOINT RightShoulder
        {
          OFFSET -2.2086 21.1115 7.2329
          CHANNELS 3 Zrotation Xrotation Yrotation
          JOINT RightArm
          {
            OFFSET -13.1216 3.0287 -4.9007
            CHANNELS 3 Zrotation Xrotation Yrotation
            JOINT RightForeArm
            {
              OFFSET -27.4081 -0.0973053 -0.2375
              CHANNELS 3 Zrotation Xrotation Yrotation
              JOINT RightHand
              {
                OFFSET -22.8641 0.0664063 -0.1369
                CHANNELS 3 Zrotation Xrotation Yrotation
                JOINT RightHandIndex1
                {
                  OFFSET -8.8614 0.774994 2.4612
                  CHANNELS 3 Zrotation Xrotation Yrotation
                  JOINT RightHandIndex2
                  {
                    OFFSET -3.3146 -0.808304 0.5841
                    CHANNELS 3 Zrotation Xrotation Yrotation
                    JOINT RightHandIndex3
                    {
                      OFFSET -2.2628 -0.552002 0.3989
                      CHANNELS 3 Zrotation Xrotation Yrotation
                      End Site
                      {
                        OFFSET -1.6102 -0.4807 0.2612
                      }
                    }
                  }
                }
                JOINT RightHandMiddle1
                {
                  OFFSET -8.9937 0.894989 0.2143
                  CHANNELS 3 Zrotation Xrotation Yrotation
                  JOINT RightHandMiddle2
                  {
                    OFFSET -4.0984 0.0113983 -0.0242
                    CHANNELS 3 Zrotation Xrotation Yrotation
                    JOINT RightHandMiddle3
                    {
                      OFFSET -2.2716 0.00691223 -0.0138001
                      CHANNELS 3 Zrotation Xrotation Yrotation
                      End Site
                      {
                        OFFSET -2.0404 -0.1441 0.0027
                      }
                    }
                  }
                }
                JOINT RightHandRing1
                {
                  OFFSET -8.5234 0.597198 -2.0164
                  CHANNELS 3 Zrotation Xrotation Yrotation
                  JOINT RightHandRing2
                  {
                    OFFSET -3.7188 -0.188309 -0.2328
                    CHANNELS 3 Zrotation Xrotation Yrotation
                    JOINT RightHandRing3
                    {
                      OFFSET -2.1191 -0.106598 -0.1332
                      CHANNELS 3 Zrotation Xrotation Yrotation
                      End Site
                      {
                        OFFSET -1.8737 -0.2304 -0.0886
                      }
                    }
                  }
                }
                JOINT RightHandPinky1
                {
                  OFFSET -7.9094 -0.601105 -3.4825
                  CHANNELS 3 Zrotation Xrotation Yrotation
                  JOINT RightHandPinky2
                  {
                    OFFSET -2.2874 -0.477005 -0.6314
                    CHANNELS 3 Zrotation Xrotation Yrotation
                    JOINT RightHandPinky3
                    {
                      OFFSET -1.6774 -0.349396 -0.4633
                      CHANNELS 3 Zrotation Xrotation Yrotation
                      End Site
                      {
                        OFFSET -1.4888 -0.4091 -0.3416
                      }
                    }
                  }
                }
                JOINT RightHandThumb1
                {
                  OFFSET -1.833 -1.38751 1.3896
                  CHANNELS 3 Zrotation Xrotation Yrotation
                  JOINT RightHandThumb2
                  {
                    OFFSET -3.41299 -1.12099 2.5732
                    CHANNELS 3 Zrotation Xrotation Yrotation
                    JOINT RightHandThumb3
                    {
                      OFFSET -2.24741 -0.804108 1.6192
                      CHANNELS 3 Zrotation Xrotation Yrotation
                      End Site
                      {
                        OFFSET -1.6527 -0.5689 1.1317
                      }
                    }
                  }
                }
              }
            }
          }
        }
      }
    }
  }
  JOINT RightUpLeg
  {
    OFFSET -9.1966 3.8861 -0.7581
    CHANNELS 3 Zrotation Xrotation Yrotation
    JOINT RightLeg
    {
      OFFSET -0.7359 -41.0265 0
      CHANNELS 3 Zrotation Xrotation Yrotation
      JOINT RightFoot
      {
        OFFSET 0 -40.2855 0
        CHANNELS 3 Zrotation Xrotation Yrotation
        JOINT RightToeBase
        {
          OFFSET 0 -5.6122 11.7359
          CHANNELS 3 Zrotation Xrotation Yrotation
          End Site
          {
            OFFSET 0 0 7.8731
          }
        }
      }
    }
  }
  JOINT LeftUpLeg
  {
    OFFSET 9.1965 3.8864 -0.7581
    CHANNELS 3 Zrotation Xrotation Yrotation
    JOINT LeftLeg
    {
      OFFSET 0.7359 -41.0268 0
      CHANNELS 3 Zrotation Xrotation Yrotation
      JOINT LeftFoot
      {
        OFFSET 0 -40.2855 0
        CHANNELS 3 Zrotation Xrotation Yrotation
        JOINT LeftToeBase
        {
          OFFSET 0 -5.6122 11.7359
          CHANNELS 3 Zrotation Xrotation Yrotation
          End Site
          {
            OFFSET 0 0 7.8731
          }
        }
      }
    }
  }
}
MOTION
Frames:	4
Frame Time:	0.0333333
-30.4214 68.7165 0.0264712 -2.7524 -0.00239987 89.9968 -0.0432453 0.982379 -0.12444 -0.0843744 1.96485 -0.248177 -0.0843767 1.96485 -0.248153 -7.48623e-006 -25.441 -1.48283e-005 1.81211e-006 -0.128526 9.79634e-006 -4.61972 0.222821 13.7671 1.4999 -51.3042 12.4323 -30.508 10.4189 -43.1337 -6.81609 -6.92931 -6.53806 -8.24698e-008 -1.29668e-006 -3.47527e-006 -1.60995e-006 3.98298e-007 5.12041e-007 -8.24699e-008 -1.29668e-006 -3.47527e-006 -8.24698e-008 -1.29668e-006 -3.47527e-006 -0.0145671 -8.41013e-005 -7.59484e-007 -1.064e-006 -1.5293e-006 -5.79069e-006 -8.24698e-008 -1.29668e-006 -3.47527e-006 -0.0187415 -0.00117332 5.96214e-005 -1.06351e-006 -1.52894e-006 -5.79075e-006 -8.24698e-008 -1.29668e-006 -3.47527e-006 -0.0121767 -0.00322143 0.000672589 -8.26709e-008 -1.29634e-006 -3.4754e-006 -8.24698e-008 -1.29668e-006 -3.47527e-006 -1.60995e-006 3.98298e-007 5.12041e-007 -8.24699e-008 -1.29668e-006 -3.47527e-006 4.95625 0.111551 -7.66412 57.3239 23.7732 -8.48273 30.0387 9.96434 42.4884 6.99682 3.15588e-006 -6.24034e-007 -6.36111e-015 -3.18055e-015 -1.59028e-015 1.8941e-006 1.94599e-006 1.84276e-006 3.18055e-015 1.59028e-015 2.38542e-015 -6.36111e-015 -3.18055e-015 -1.59028e-015 0.0149849 -8.76864e-005 -3.56614e-006 3.18055e-015 -4.77083e-015 -2.38542e-015 -6.36111e-015 -3.18055e-015 -1.59028e-015 0.0190077 -0.00119148 -5.83986e-005 6.36111e-015 -1.59028e-014 -2.38542e-015 -6.36111e-015 -3.18055e-015 -1.59028e-015 0.0122869 -0.00325294 -0.000672123 -3.18055e-015 -3.18055e-015 -3.18055e-015 -6.36111e-015 -3.18055e-015 -1.59028e-015 1.8941e-006 1.94599e-006 1.84276e-006 3.18055e-015 1.59028e-015 2.38542e-015 -2.89407 -2.97657 -9.07431 6.00091 10.6666 -1.37901 -11.8128 -6.2607 5.95154 2.94151e-007 3.07329e-007 3.44226e-008 4.73935 -3.63751 4.79995 -3.51131 11.2577 0.81144 7.12152 -6.44661 -2.18449 -6.79713e-007 -3.42903e-007 -1.79876e-007 
-30.3726 68.7256 0.0264687 -2.58574 -0.00241047 89.9968 -0.0432538 0.969111 -0.124352 -0.0844281 1.93829 -0.248028 -0.0844302 1.93829 -0.24803 -2.39922e-005 -25.1542 -8.47064e-006 -1.08348e-006 -0.127066 2.87822e-006 -4.61972 0.222893 13.7671 1.49988 -51.3042 12.4323 -30.508 10.4189 -43.1337 -6.94096 -6.75088 -6.46149 6.36111e-015 1.59028e-015 -3.18055e-015 2.74778e-006 -1.23834e-006 -1.45678e-006 2.74778e-006 -1.23834e-006 -1.45678e-006 6.36111e-015 1.59028e-015 -3.18055e-015 -0.0146492 -8.89896e-005 -3.86182e-006 2.74786e-006 -1.23815e-006 -1.45694e-006 6.36111e-015 1.59028e-015 -3.18055e-015 -0.0187957 -0.00118226 5.90797e-005 2.74787e-006 -1.23809e-006 -1.45702e-006 6.36111e-015 1.59028e-015 -3.18055e-015 -0.0121877 -0.00322894 0.000672034 1.04942e-006 -2.13662e-006 -4.42341e-006 6.36111e-015 1.59028e-015 -3.18055e-015 2.74778e-006 -1.23834e-006 -1.45678e-006 2.74778e-006 -1.23834e-006 -1.45678e-006 4.95625 0.111619 -7.66414 57.3239 23.7732 -8.48273 30.0387 9.96434 42.4884 6.99683 1.82545e-006 -5.26603e-006 -1.896e-006 -1.94225e-006 -1.84672e-006 1.896e-006 1.94225e-006 1.84672e-006 -6.36111e-015 4.77083e-015 -0 -1.896e-006 -1.94225e-006 -1.84672e-006 0.014994 -9.08386e-005 2.38962e-006 -3.18055e-015 -6.36111e-015 -7.95139e-015 -1.896e-006 -1.94225e-006 -1.84672e-006 0.0190296 -0.00119254 -5.78835e-005 -6.36111e-015 -1.59028e-015 -3.18055e-015 -1.896e-006 -1.94225e-006 -1.84672e-006 0.0122259 -0.00323251 -0.000671479 3.18055e-015 -4.77083e-015 -7.95139e-016 -1.896e-006 -1.94225e-006 -1.84672e-006 1.896e-006 1.94225e-006 1.84672e-006 -6.36111e-015 4.77083e-015 -0 -2.89355 -2.77259 -9.06477 6.00092 10.6669 -1.37902 -11.8128 -6.26091 5.95147 3.18055e-015 -4.77083e-015 -0 4.7394 -3.43397 4.79217 -3.51132 11.2584 0.811493 7.12152 -6.44691 -2.18447 -2.28394e-007 6.21433e-008 1.69229e-007 
-30.3237 68.7348 0.0264632 -2.41909 -0.0024073 89.997 -0.0432699 0.955809 -0.124259 -0.0844806 1.9117 -0.247889 -0.0844785 1.9117 -0.247908 2.2951e-007 -24.8672 -2.01633e-005 8.17808e-007 -0.125621 9.97822e-006 -4.61973 0.222979 13.7671 1.49988 -51.3042 12.4323 -30.508 10.4189 -43.1337 -7.06605 -6.57261 -6.38454 1.37416e-006 -6.18362e-007 -7.28739e-007 -9.54166e-015 -1.59028e-015 -9.54166e-015 1.37416e-006 -6.18362e-007 -7.28739e-007 1.37416e-006 -6.18362e-007 -7.28739e-007 -0.0146727 -8.4487e-005 -3.59208e-006 1.37421e-006 -6.18268e-007 -7.28819e-007 1.37416e-006 -6.18362e-007 -7.28739e-007 -0.0187057 -0.00117667 5.42783e-005 2.33995e-006 -3.90474e-007 1.5769e-006 1.37416e-006 -6.18362e-007 -7.28739e-007 -0.0123405 -0.00326767 0.000679844 1.37418e-006 -6.18282e-007 -7.28846e-007 1.37416e-006 -6.18362e-007 -7.28739e-007 -9.54166e-015 -1.59028e-015 -9.54166e-015 1.37416e-006 -6.18362e-007 -7.28739e-007 4.95625 0.111707 -7.66414 57.3239 23.7732 -8.48273 30.0387 9.96435 42.4884 6.99683 5.98438e-006 -9.66901e-006 3.18055e-015 0 -1.59028e-015 -1.89789e-006 -1.9385e-006 -1.85068e-006 4.6346e-031 -1.11319e-014 2.38542e-015 3.18055e-015 0 -1.59028e-015 0.0149838 -8.47542e-005 4.5904e-006 1.76556e-031 6.36111e-015 -1.59028e-015 3.18055e-015 0 -1.59028e-015 0.0189928 -0.00119049 -6.29039e-005 -3.18055e-015 -3.18055e-015 1.59028e-015 3.18055e-015 0 -1.59028e-015 0.0122599 -0.00324517 -0.000672375 -3.18055e-015 0 3.18055e-015 3.18055e-015 0 -1.59028e-015 -1.89789e-006 -1.9385e-006 -1.85068e-006 4.6346e-031 -1.11319e-014 2.38542e-015 -2.89299 -2.56817 -9.05521 6.00091 10.6663 -1.37901 -11.8128 -6.26069 5.9515 -2.94153e-007 -3.0731e-007 -3.46242e-008 4.73943 -3.22995 4.78437 -3.51132 11.2582 0.811497 7.12153 -6.44674 -2.18448 2.14507e-007 -3.94382e-007 2.1773e-007 
-30.2749 68.744 0.0264609 -2.25242 -0.00241892 89.9971 -0.0432816 0.942493 -0.124206 -0.0845307 1.88506 -0.247727 -0.0845282 1.88506 -0.247762 -3.40934e-005 -24.5802 -3.88451e-005 -1.67358e-006 -0.124164 -2.03721e-006 -4.61974 0.223098 13.7671 1.49991 -51.3042 12.4323 -30.508 10.4189 -43.1337 -7.19135 -6.39446 -6.30724 -3.32432e-007 -1.51624e-006 -3.70194e-006 6.36111e-015 1.43125e-014 -3.18055e-015 1.37444e-006 -6.17553e-007 -7.29082e-007 -3.32432e-007 -1.51624e-006 -3.70194e-006 -0.0146276 -9.52877e-005 -5.61941e-006 1.37448e-006 -6.17459e-007 -7.29162e-007 -3.32432e-007 -1.51624e-006 -3.70194e-006 -0.0188056 -0.00117873 6.00473e-005 1.37449e-006 -6.1743e-007 -7.29198e-007 -3.32432e-007 -1.51624e-006 -3.70194e-006 -0.0122581 -0.0032441 0.000674886 -3.33554e-007 -1.51611e-006 -3.70204e-006 -3.32432e-007 -1.51624e-006 -3.70194e-006 6.36111e-015 1.43125e-014 -3.18055e-015 1.37444e-006 -6.17553e-007 -7.29082e-007 4.95624 0.11182 -7.66418 57.3239 23.7732 -8.48272 30.0387 9.96435 42.4884 6.99681 1.57611e-005 1.21577e-005 1.89978e-006 1.93473e-006 1.85463e-006 9.54166e-015 0 -7.95139e-016 -0 -4.77083e-015 -0 1.89978e-006 1.93473e-006 1.85463e-006 0.0150043 -9.56991e-005 -4.43697e-006 1.54487e-031 -1.59028e-015 5.56597e-015 1.89978e-006 1.93473e-006 1.85463e-006 0.018994 -0.00118793 -5.86047e-005 3.18055e-015 1.59028e-015 3.18055e-015 1.89978e-006 1.93473e-006 1.85463e-006 0.012235 -0.003247 -0.000673302 6.36111e-015 1.59028e-015 4.77083e-015 1.89978e-006 1.93473e-006 1.85463e-006 9.54166e-015 0 -7.95139e-016 -0 -4.77083e-015 -0 -2.89258 -2.36447 -9.04575 6.00093 10.6672 -1.37902 -11.8128 -6.26123 5.95145 -2.94154e-007 -3.07301e-007 -3.4725e-008 4.73954 -3.02638 4.77665 -3.51132 11.259 0.811505 7.12152 -6.44707 -2.18446 -3.1787e-007 -8.96879e-007 5.27388e-008 
